<svg width="24" height="24" viewBox="0 0 24 24" fill="none" xmlns="http://www.w3.org/2000/svg">
<path fill-rule="evenodd" clip-rule="evenodd" d="M7.63739 3.39543C5.06039 3.39543 3.39539 5.16243 3.39539 7.88843V16.1024C3.39539 16.8674 3.53739 17.5504 3.78039 18.1414C3.79088 18.1289 4.01974 17.85 4.31828 17.4862C4.90176 16.7752 5.75144 15.7397 5.75739 15.7344C6.44939 14.9444 7.74839 13.7664 9.45339 14.4794C9.827 14.6343 10.1591 14.8465 10.4648 15.0419C10.4946 15.0609 10.5241 15.0798 10.5534 15.0984C11.1264 15.4814 11.4634 15.6614 11.8134 15.6314C11.9584 15.6114 12.0944 15.5684 12.2234 15.4884C12.71 15.1884 13.9716 13.4008 14.3494 12.8655C14.4048 12.787 14.4412 12.7354 14.4534 12.7194C15.5434 11.2994 17.2234 10.9194 18.6234 11.7594C18.8114 11.8714 20.1584 12.8124 20.6044 13.1904V7.88843C20.6044 5.16243 18.9394 3.39543 16.3534 3.39543H7.63739ZM16.3534 2.00043C19.7304 2.00043 21.9994 4.36243 21.9994 7.88843V16.1024C21.9994 16.1911 21.9901 16.2743 21.9808 16.3574C21.9742 16.4158 21.9677 16.4742 21.9644 16.5344C21.9622 16.5709 21.9612 16.6073 21.9602 16.6437C21.9588 16.6923 21.9574 16.7409 21.9534 16.7894C21.9514 16.8084 21.9476 16.8267 21.9439 16.8449C21.9401 16.8632 21.9364 16.8814 21.9344 16.9004C21.9014 17.2144 21.8504 17.5144 21.7794 17.8054C21.7626 17.8781 21.7432 17.9482 21.7237 18.019L21.7194 18.0344C21.6394 18.3164 21.5454 18.5854 21.4324 18.8424C21.4126 18.8856 21.3917 18.9278 21.3708 18.9699C21.3569 18.998 21.343 19.026 21.3294 19.0544C21.2074 19.2994 21.0754 19.5344 20.9224 19.7524C20.8941 19.7928 20.864 19.8306 20.8338 19.8685C20.8138 19.8935 20.7939 19.9186 20.7744 19.9444C20.6154 20.1504 20.4494 20.3474 20.2614 20.5264C20.2239 20.5621 20.1833 20.5948 20.1427 20.6274C20.1174 20.6479 20.092 20.6683 20.0674 20.6894C19.8744 20.8554 19.6774 21.0144 19.4604 21.1504C19.413 21.1802 19.3627 21.2051 19.3126 21.23C19.2802 21.2461 19.2478 21.2621 19.2164 21.2794C18.9954 21.4014 18.7724 21.5204 18.5294 21.6124C18.4709 21.6346 18.4087 21.6507 18.3463 21.6668C18.302 21.6783 18.2576 21.6897 18.2144 21.7034C18.1928 21.7101 18.1711 21.7169 18.1495 21.7236C17.9325 21.7911 17.7161 21.8584 17.4824 21.8984C17.347 21.9222 17.2033 21.9313 17.0595 21.9404C16.9972 21.9443 16.935 21.9483 16.8734 21.9534C16.8072 21.9584 16.7422 21.9664 16.6772 21.9744C16.5715 21.9874 16.4655 22.0004 16.3534 22.0004H7.63739C7.26139 22.0004 6.90239 21.9624 6.55539 21.9054C6.54239 21.9034 6.53039 21.9014 6.51839 21.8994C5.16539 21.6664 4.04239 21.0134 3.25539 20.0284C3.24992 20.0284 3.24778 20.0247 3.24492 20.0198C3.24307 20.0166 3.24092 20.013 3.23739 20.0094C2.44639 19.0134 1.99939 17.6744 1.99939 16.1024V7.88843C1.99939 4.36243 4.27039 2.00043 7.63739 2.00043H16.3534ZM11 8.51499C11 9.86994 9.86627 11 8.50483 11C7.30813 11 6.28778 10.1257 6.0591 8.99366C6.02131 8.82381 5.99999 8.64913 5.99999 8.46866C5.99999 7.10406 7.10852 6.00003 8.47867 6.00003C9.17635 6.00003 9.80813 6.29341 10.2606 6.76146C10.7151 7.21311 11 7.83558 11 8.51499Z" fill="#130F26"/>
</svg>
